<svg height="37" viewBox="0 0 43 37" width="43" xmlns="http://www.w3.org/2000/svg"><path clip-rule="evenodd" d="m9.11245 4.96735c3.71755-3.30318 8.12595-4.96735 13.18775-4.96735 6.653 0 11.4993 4.25486 14.756 9.78279 3.2565 5.52761 4.9536 12.37121 5.305 17.66761.0325.4457-.0654.8911-.2823 1.2816l-.0011.0024-.0013.0021c-3.1106 5.3439-10.1714 8.2612-19.7748 8.2614-6.8962.0906-13.49199-2.8171-18.07711-7.969-.54569-.6067-.70947-1.4659-.4251-2.2307.61494-1.6552 1.76704-4.4162 3.2968-6.7708.76476-1.177 1.63046-2.2629 2.57901-3.0583.9482-.7951 1.9972-1.3145 3.1223-1.3207h.0014c1.1335 0 2.1132.4518 2.9626 1.0623.8305.5969 1.5529 1.3581 2.1824 2.0213l.0382.0405.0021.0021c.3606.3999.7431.7793 1.1457 1.1368 1.7152-2.2044 3.1506-4.6135 4.2725-7.172l.0034-.008.0043-.0078c.5441-1.0339 1.8035-1.4594 2.8632-.9673 1.0598.492 1.5472 1.7286 1.1087 2.8114l-.0023.006-.0027.0057c-2.2942 4.9152-4.0667 7.4003-5.3849 8.6581-.6612.631-1.2134.9586-1.6652 1.1257-.4553.1686-.7936.1686-1.0031.1686-.961 0-1.7805-.3704-2.5326-.9244-.7327-.5397-1.3888-1.249-2.0125-1.9017l-.093-.098c-.5824-.6069-1.1319-1.1637-1.6665-1.5484-.5152-.3706-.9121-.5382-1.2403-.5382-.3232.0007-.657.1098-1.1127.4911-.4563.3819-1.0005 1.0149-1.6432 1.9032-1.2282 1.8967-2.2259 4.2423-2.8472 5.9092 4.07291 3.962 9.30521 6.0371 14.59091 5.9693 8.7267-.0006 14.7424-2.4906 17.1255-6.5289-.3722-4.8038-2.0137-10.84901-4.8811-15.71471-2.8672-4.8651-6.8291-8.43609-12.2444-8.43609-3.9392 0-7.33665 1.21609-10.36085 3.90279-.52699.46844-1.33259.42127-1.80103-.10572s-.42127-1.33259.10572-1.80103z" fill="#1d2d35" fill-rule="evenodd"/></svg>
