<svg xmlns="http://www.w3.org/2000/svg" viewBox="0 0 24 24" role="img"><title>ChatGPT Atlas</title><defs><linearGradient id="ag" x1="0" y1="0" x2="1" y2="1"><stop offset="0%" stop-color="#10A37F"/><stop offset="100%" stop-color="#1A7F64"/></linearGradient></defs><rect width="24" height="24" rx="5" fill="url(#ag)"/><g fill="#fff"><circle cx="12" cy="8" r="3" fill="none" stroke="#fff" stroke-width="1.5"/><path d="M12 5v6M9.4 6.5l5.2 3M9.4 9.5l5.2-3" stroke="#fff" stroke-width=".8" fill="none"/><path d="M7 15.5a1 1 0 011-1h8a1 1 0 011 1v0a1 1 0 01-1 1H8a1 1 0 01-1-1z" opacity=".7"/><path d="M8 17.5h8v.5a1 1 0 01-1 1H9a1 1 0 01-1-1v-.5z" opacity=".5"/></g></svg>