<svg xmlns="http://www.w3.org/2000/svg" viewBox="0 0 24 24" role="img"><title>ContentKing</title><defs><linearGradient id="ck" x1="0" y1="0" x2="1" y2="1"><stop offset="0%" stop-color="#FF8C00"/><stop offset="100%" stop-color="#FF5500"/></linearGradient></defs><path fill="url(#ck)" d="M12 1C5.925 1 1 5.925 1 12s4.925 11 11 11 11-4.925 11-11S18.075 1 12 1zm-.5 4h1a.5.5 0 01.5.5v3.086l2.293-2.293a.5.5 0 01.707 0l.707.707a.5.5 0 010 .707L14.414 10H17.5a.5.5 0 01.5.5v1a.5.5 0 01-.5.5h-3.086l2.293 2.293a.5.5 0 010 .707l-.707.707a.5.5 0 01-.707 0L13 13.414V16.5a.5.5 0 01-.5.5h-1a.5.5 0 01-.5-.5v-3.086l-2.293 2.293a.5.5 0 01-.707 0l-.707-.707a.5.5 0 010-.707L9.586 12H6.5a.5.5 0 01-.5-.5v-1a.5.5 0 01.5-.5h3.086L7.293 7.707a.5.5 0 010-.707L8 6.293a.5.5 0 01.707 0L11 8.586V5.5a.5.5 0 01.5-.5zM7 18.5a1.5 1.5 0 100 3 1.5 1.5 0 000-3zm5 0a1.5 1.5 0 100 3 1.5 1.5 0 000-3zm5 0a1.5 1.5 0 100 3 1.5 1.5 0 000-3z"/></svg>