<svg xmlns="http://www.w3.org/2000/svg" viewBox="0 0 24 24" role="img"><title>Google Business Profile</title><path fill="#4285F4" d="M22 8.5l-2-4.5H4L2 8.5z"/><path fill="#34A853" d="M2 8.5C2 10.433 3.567 12 5.5 12S9 10.433 9 8.5"/><path fill="#FBBC04" d="M9 8.5C9 10.433 10.567 12 12.5 12h-1C13.433 12 15 10.433 15 8.5"/><path fill="#EA4335" d="M15 8.5C15 10.433 16.567 12 18.5 12S22 10.433 22 8.5"/><path fill="#4285F4" d="M3 11v9a1 1 0 001 1h16a1 1 0 001-1v-9"/><path fill="#34A853" d="M9 15h6v6H9z"/></svg>