<svg xmlns="http://www.w3.org/2000/svg" viewBox="0 0 24 24" role="img"><title>Google Keyword Planner</title><path fill="#4285F4" d="M3 3h18a1 1 0 011 1v16a1 1 0 01-1 1H3a1 1 0 01-1-1V4a1 1 0 011-1z"/><path fill="#fff" d="M5 7h3v2H5zm0 3h3v2H5zm0 3h3v2H5z"/><path fill="#FBBC04" d="M10 7h9v2h-9z"/><path fill="#34A853" d="M10 10h7v2h-7z"/><path fill="#EA4335" d="M10 13h8v2h-8z"/><circle fill="#fff" cx="17" cy="18" r="2.5"/><path fill="#4285F4" d="M16.3 17.3l1.4 1.4.8-.8-1.4-1.4z"/><circle fill="none" stroke="#fff" stroke-width=".8" cx="16.5" cy="17.5" r="1.2"/></svg>