<svg role="img" viewBox="0 0 24 24" xmlns="http://www.w3.org/2000/svg"><title>Google Search Console</title><path fill="#4285F4" d="M8.548 1.156L6.832 2.872v1.682h1.716zm0 3.398v.035H6.832v-.035H3.386L0 7.844v3.577h2.826V8.94c0-.525.429-.954.954-.954h16.476c.525 0 .954.43.954.954v2.48h2.754V7.844l-3.386-3.29H17.3v.035h-1.717v-.035zm7.035 0H17.3V2.872l-1.717-1.716z"/><path fill="#4285F4" d="M8.679 1.188V2.84h6.773V1.188z"/><path fill="#EA4335" d="M20.15 8.258a.834.834 0 00-.132.01l-.543.002c-5.216.014-10.432-.008-15.648.01-.435-.063-.794.436-.716.883v2.264h17.812c-.016-.888.045-1.782-.034-2.666-.104-.342-.427-.502-.739-.502z"/><path fill="#FBBC04" d="M6.862 8.892a.689.698 0 01.689.698.689.698 0 01-.689.697.689.698 0 01-.688-.697.689.698 0 01.688-.698zm2.134 0a.689.698 0 01.689.698.689.698 0 01-.689.697.689.698 0 01-.688-.697.689.698 0 01.688-.698z"/><path fill="#34A853" d="M.036 11.645v9.156c0 1.05.858 1.908 1.907 1.908h.883V11.645z"/><path fill="#4285F4" d="M21.174 11.645v11.064h.882c1.05 0 1.908-.858 1.908-1.908v-9.156z"/><path fill="#EA4335" d="M4.057 13.133v6.85h6.137v-6.85z"/><path fill="#34A853" d="M17.3 13.154v3.777l-1.708.977-1.708-.977v-3.758a4.006 4.006 0 000 7.23v2.441h3.457v-2.442a4.006 4.006 0 00-.041-7.248z"/><path fill="#EA4335" d="M4.057 21.393v1.43h7.925v-1.43z"/></svg>