<svg xmlns="http://www.w3.org/2000/svg" viewBox="0 0 256 256">
  <rect width="256" height="256" rx="32" fill="#000"/>
  <path d="M168 48v96c0 33.1-26.9 60-60 60s-60-26.9-60-60 26.9-60 60-60v24c-19.9 0-36 16.1-36 36s16.1 36 36 36 36-16.1 36-36V48h24z" fill="#25F4EE"/>
  <path d="M176 48v96c0 33.1-26.9 60-60 60s-60-26.9-60-60 26.9-60 60-60v24c-19.9 0-36 16.1-36 36s16.1 36 36 36 36-16.1 36-36V48h24z" fill="#FE2C55" opacity="0.7"/>
  <path d="M176 48c8.8 14.4 24 24 41.6 25.6V98c-17.6-1.6-33.6-9.6-45.6-22.4" fill="#25F4EE"/>
  <path d="M180 48c8.8 14.4 24 24 41.6 25.6V98c-17.6-1.6-33.6-9.6-45.6-22.4" fill="#FE2C55" opacity="0.7"/>
</svg>